<svg xmlns="http://www.w3.org/2000/svg" viewBox="0 0 320 540" class="esp32-board">
  <defs>
    <style>
      .board-body { fill: #1a1a2e; stroke: #0d0d1a; stroke-width: 2; }
      .usb-connector { fill: #c0c0c0; stroke: #808080; stroke-width: 1; }
      .chip { fill: #2d2d2d; stroke: #1a1a1a; stroke-width: 1; }
      .chip-text { fill: #808080; font-family: monospace; font-size: 6px; }
      .antenna { fill: #d4a017; stroke: #b8860b; stroke-width: 1; }
      .pin-hole { fill: none; stroke: #444; stroke-width: 1; }
      .pin-label { fill: #e8e8e8; font-family: monospace; font-size: 9px; font-weight: bold; }
      .pin-label-right { text-anchor: start; }
      .pin-label-left { text-anchor: end; }
      .led-power { fill: #ff3333; stroke: #222; stroke-width: 1; }
      .led-user { fill: #333; stroke: #222; stroke-width: 1; }
      .led-user.on { fill: #0088ff; filter: drop-shadow(0 0 4px #0088ff); }
      .led-user.pwm { fill: #ffaa00; filter: drop-shadow(0 0 4px #ffaa00); animation: pwm-pulse 0.5s ease-in-out infinite; }
      @keyframes pwm-pulse { 0%, 100% { opacity: 0.4; } 50% { opacity: 1; } }
      .button { fill: #444; stroke: #333; stroke-width: 1; }
      .pin-base { fill: #666; opacity: 1; }
      .pin-indicator { fill: none; opacity: 0; transition: opacity 0.2s; }
      .pin-indicator.active { opacity: 0.8; }
      .pin-high { fill: #00ff00; }
      .pin-low { fill: #444; }
      .pin-pwm { fill: #ffaa00; }
      .digital-mode { fill: #28a745; }
      .digital-out { fill: #28a745; }
      .digital-in { fill: #87ceeb; }
      .pwm-mode { fill: #ffc107; }
      .adc-mode { fill: #9b59b6; }
      .i2c-mode { fill: #00d4ff; }
      .uart-mode { fill: #e83e8c; }
      .pin-func { fill: #e83e8c; font-family: monospace; font-size: 7px; font-weight: normal; }
    </style>
  </defs>
  
  <!-- Board body -->
  <rect class="board-body" x="20" y="20" width="280" height="500" rx="6"/>
  
  <!-- WiFi Antenna area -->
  <rect class="antenna" x="90" y="30" width="140" height="50" rx="4"/>
  <text x="160" y="58" text-anchor="middle" fill="#1a1a1a" font-size="7" font-family="monospace">WiFi/BT Antenna</text>
  
  <!-- ESP32-WROOM Module -->
  <rect class="chip" x="100" y="85" width="120" height="100" rx="4"/>
  <text class="chip-text" x="160" y="125" text-anchor="middle">ESP32-WROOM-32</text>
  <text class="chip-text" x="160" y="138" text-anchor="middle">Dual Core 240MHz</text>
  <text class="chip-text" x="160" y="151" text-anchor="middle">WiFi + BT</text>
  
  <!-- Power LED -->
  <circle class="led-power" cx="100" cy="200" r="4"/>
  <text x="110" y="203" fill="#888" font-size="5" font-family="monospace">PWR</text>
  
  <!-- User LED (GPIO2) -->
  <circle id="led-gpio2" class="led-user" cx="220" cy="200" r="4"/>
  <text x="210" y="203" text-anchor="end" fill="#888" font-size="5" font-family="monospace">LED</text>
  
  <!-- EN/RST button -->
  <rect class="button" x="70" y="210" width="25" height="12" rx="2"/>
  <text x="82" y="218" text-anchor="middle" fill="#888" font-size="5" font-family="monospace">EN</text>
  
  <!-- BOOT button -->
  <rect class="button" x="225" y="210" width="25" height="12" rx="2"/>
  <text x="237" y="218" text-anchor="middle" fill="#888" font-size="5" font-family="monospace">BOOT</text>
  
  <!-- Board label -->
  <text x="160" y="240" text-anchor="middle" fill="#4a9eff" font-size="11" font-family="sans-serif" font-weight="bold">ESP32</text>
  <text x="160" y="253" text-anchor="middle" fill="#4a9eff" font-size="9" font-family="sans-serif">DevKit V1</text>
  
  <!-- Left side pins (15 pins) -->
  <g id="left-pins">
    <!-- 3V3 -->
    <circle class="pin-hole" cx="35" cy="260" r="6"/>
    <circle class="pin-base" cx="35" cy="260" r="2.5"/>
    <text class="pin-label pin-label-right" x="43" y="263">3V3</text>
    
    <!-- EN -->
    <circle class="pin-hole" cx="35" cy="275" r="6"/>
    <circle class="pin-base" cx="35" cy="275" r="2.5"/>
    <text class="pin-label pin-label-right" x="43" y="278">EN</text>
    
    <!-- GPIO36/VP -->
    <circle class="pin-hole" cx="35" cy="290" r="6"/>
    <circle class="pin-base" cx="35" cy="290" r="2.5"/>
    <circle id="pin-36" class="pin-indicator" cx="35" cy="290" r="4.5"/>
    <text class="pin-label pin-label-right" x="43" y="293">36</text>
    
    <!-- GPIO39/VN -->
    <circle class="pin-hole" cx="35" cy="305" r="6"/>
    <circle class="pin-base" cx="35" cy="305" r="2.5"/>
    <circle id="pin-39" class="pin-indicator" cx="35" cy="305" r="4.5"/>
    <text class="pin-label pin-label-right" x="43" y="308">39</text>
    
    <!-- GPIO34 -->
    <circle class="pin-hole" cx="35" cy="320" r="6"/>
    <circle class="pin-base" cx="35" cy="320" r="2.5"/>
    <circle id="pin-34" class="pin-indicator" cx="35" cy="320" r="4.5"/>
    <text class="pin-label pin-label-right" x="43" y="323">34</text>
    
    <!-- GPIO35 -->
    <circle class="pin-hole" cx="35" cy="335" r="6"/>
    <circle class="pin-base" cx="35" cy="335" r="2.5"/>
    <circle id="pin-35" class="pin-indicator" cx="35" cy="335" r="4.5"/>
    <text class="pin-label pin-label-right" x="43" y="338">35</text>
    
    <!-- GPIO32 -->
    <circle class="pin-hole" cx="35" cy="350" r="6"/>
    <circle class="pin-base" cx="35" cy="350" r="2.5"/>
    <circle id="pin-32" class="pin-indicator" cx="35" cy="350" r="4.5"/>
    <text class="pin-label pin-label-right" x="43" y="353">32</text>
    
    <!-- GPIO33 -->
    <circle class="pin-hole" cx="35" cy="365" r="6"/>
    <circle class="pin-base" cx="35" cy="365" r="2.5"/>
    <circle id="pin-33" class="pin-indicator" cx="35" cy="365" r="4.5"/>
    <text class="pin-label pin-label-right" x="43" y="368">33</text>
    
    <!-- GPIO25 -->
    <circle class="pin-hole" cx="35" cy="380" r="6"/>
    <circle class="pin-base" cx="35" cy="380" r="2.5"/>
    <circle id="pin-25" class="pin-indicator" cx="35" cy="380" r="4.5"/>
    <text class="pin-label pin-label-right" x="43" y="383">25</text>
    
    <!-- GPIO26 -->
    <circle class="pin-hole" cx="35" cy="395" r="6"/>
    <circle class="pin-base" cx="35" cy="395" r="2.5"/>
    <circle id="pin-26" class="pin-indicator" cx="35" cy="395" r="4.5"/>
    <text class="pin-label pin-label-right" x="43" y="398">26</text>
    
    <!-- GPIO27 -->
    <circle class="pin-hole" cx="35" cy="410" r="6"/>
    <circle class="pin-base" cx="35" cy="410" r="2.5"/>
    <circle id="pin-27" class="pin-indicator" cx="35" cy="410" r="4.5"/>
    <text class="pin-label pin-label-right" x="43" y="413">27</text>
    
    <!-- GPIO14 -->
    <circle class="pin-hole" cx="35" cy="425" r="6"/>
    <circle class="pin-base" cx="35" cy="425" r="2.5"/>
    <circle id="pin-14" class="pin-indicator" cx="35" cy="425" r="4.5"/>
    <text class="pin-label pin-label-right" x="43" y="428">14</text>
    
    <!-- GPIO12 -->
    <circle class="pin-hole" cx="35" cy="440" r="6"/>
    <circle class="pin-base" cx="35" cy="440" r="2.5"/>
    <circle id="pin-12" class="pin-indicator" cx="35" cy="440" r="4.5"/>
    <text class="pin-label pin-label-right" x="43" y="443">12</text>
    
    <!-- GND -->
    <circle class="pin-hole" cx="35" cy="455" r="6"/>
    <circle class="pin-base" cx="35" cy="455" r="2.5"/>
    <text class="pin-label pin-label-right" x="43" y="458">GND</text>
    
    <!-- GPIO13 -->
    <circle class="pin-hole" cx="35" cy="470" r="6"/>
    <circle class="pin-base" cx="35" cy="470" r="2.5"/>
    <circle id="pin-13" class="pin-indicator" cx="35" cy="470" r="4.5"/>
    <text class="pin-label pin-label-right" x="43" y="473">13</text>
    
    <!-- GND (bottom) -->
    <circle class="pin-hole" cx="35" cy="485" r="6"/>
    <circle class="pin-base" cx="35" cy="485" r="2.5"/>
    <text class="pin-label pin-label-right" x="43" y="488">GND</text>
  </g>
  
  <!-- Right side pins (15 pins) -->
  <g id="right-pins">
    <!-- VIN -->
    <circle class="pin-hole" cx="285" cy="260" r="6"/>
    <circle class="pin-base" cx="285" cy="260" r="2.5"/>
    <text class="pin-label pin-label-left" x="277" y="263">VIN</text>
    
    <!-- GND -->
    <circle class="pin-hole" cx="285" cy="275" r="6"/>
    <circle class="pin-base" cx="285" cy="275" r="2.5"/>
    <text class="pin-label pin-label-left" x="277" y="278">GND</text>
    
    <!-- GPIO23 -->
    <circle class="pin-hole" cx="285" cy="290" r="6"/>
    <circle class="pin-base" cx="285" cy="290" r="2.5"/>
    <circle id="pin-23" class="pin-indicator" cx="285" cy="290" r="4.5"/>
    <text class="pin-label pin-label-left" x="277" y="293">23</text>
    
    <!-- GPIO22 -->
    <circle class="pin-hole" cx="285" cy="305" r="6"/>
    <circle class="pin-base" cx="285" cy="305" r="2.5"/>
    <circle id="pin-22" class="pin-indicator" cx="285" cy="305" r="4.5"/>
    <text class="pin-label pin-label-left" x="277" y="308">22</text>
    
    <!-- GPIO1/TX -->
    <circle class="pin-hole" cx="285" cy="320" r="6"/>
    <circle class="pin-base" cx="285" cy="320" r="2.5"/>
    <circle id="pin-1" class="pin-indicator" cx="285" cy="320" r="4.5"/>
    <text class="pin-label pin-label-left" x="277" y="323">TX</text>
    
    <!-- GPIO3/RX -->
    <circle class="pin-hole" cx="285" cy="335" r="6"/>
    <circle class="pin-base" cx="285" cy="335" r="2.5"/>
    <circle id="pin-3" class="pin-indicator" cx="285" cy="335" r="4.5"/>
    <text class="pin-label pin-label-left" x="277" y="338">RX</text>
    
    <!-- GPIO21 -->
    <circle class="pin-hole" cx="285" cy="350" r="6"/>
    <circle class="pin-base" cx="285" cy="350" r="2.5"/>
    <circle id="pin-21" class="pin-indicator" cx="285" cy="350" r="4.5"/>
    <text class="pin-label pin-label-left" x="277" y="353">21</text>
    
    <!-- GPIO19 -->
    <circle class="pin-hole" cx="285" cy="365" r="6"/>
    <circle class="pin-base" cx="285" cy="365" r="2.5"/>
    <circle id="pin-19" class="pin-indicator" cx="285" cy="365" r="4.5"/>
    <text class="pin-label pin-label-left" x="277" y="368">19</text>
    
    <!-- GPIO18 -->
    <circle class="pin-hole" cx="285" cy="380" r="6"/>
    <circle class="pin-base" cx="285" cy="380" r="2.5"/>
    <circle id="pin-18" class="pin-indicator" cx="285" cy="380" r="4.5"/>
    <text class="pin-label pin-label-left" x="277" y="383">18</text>
    
    <!-- GPIO5 -->
    <circle class="pin-hole" cx="285" cy="395" r="6"/>
    <circle class="pin-base" cx="285" cy="395" r="2.5"/>
    <circle id="pin-5" class="pin-indicator" cx="285" cy="395" r="4.5"/>
    <text class="pin-label pin-label-left" x="277" y="398">5</text>
    
    <!-- GPIO17 -->
    <circle class="pin-hole" cx="285" cy="410" r="6"/>
    <circle class="pin-base" cx="285" cy="410" r="2.5"/>
    <circle id="pin-17" class="pin-indicator" cx="285" cy="410" r="4.5"/>
    <text class="pin-label pin-label-left" x="277" y="413">17</text>
    <text class="pin-func" x="262" y="413">TX</text>
    
    <!-- GPIO16 -->
    <circle class="pin-hole" cx="285" cy="425" r="6"/>
    <circle class="pin-base" cx="285" cy="425" r="2.5"/>
    <circle id="pin-16" class="pin-indicator" cx="285" cy="425" r="4.5"/>
    <text class="pin-label pin-label-left" x="277" y="428">16</text>
    <text class="pin-func" x="262" y="428">RX</text>
    
    <!-- GPIO4 -->
    <circle class="pin-hole" cx="285" cy="440" r="6"/>
    <circle class="pin-base" cx="285" cy="440" r="2.5"/>
    <circle id="pin-4" class="pin-indicator" cx="285" cy="440" r="4.5"/>
    <text class="pin-label pin-label-left" x="277" y="443">4</text>
    
    <!-- GPIO0 -->
    <circle class="pin-hole" cx="285" cy="455" r="6"/>
    <circle class="pin-base" cx="285" cy="455" r="2.5"/>
    <circle id="pin-0" class="pin-indicator" cx="285" cy="455" r="4.5"/>
    <text class="pin-label pin-label-left" x="277" y="458">0</text>
    
    <!-- GPIO2 -->
    <circle class="pin-hole" cx="285" cy="470" r="6"/>
    <circle class="pin-base" cx="285" cy="470" r="2.5"/>
    <circle id="pin-2" class="pin-indicator" cx="285" cy="470" r="4.5"/>
    <text class="pin-label pin-label-left" x="277" y="473">2</text>
    
    <!-- GPIO15 -->
    <circle class="pin-hole" cx="285" cy="485" r="6"/>
    <circle class="pin-base" cx="285" cy="485" r="2.5"/>
    <circle id="pin-15" class="pin-indicator" cx="285" cy="485" r="4.5"/>
    <text class="pin-label pin-label-left" x="277" y="488">15</text>
  </g>
  
  <!-- USB Micro connector -->
  <rect class="usb-connector" x="130" y="495" width="60" height="20" rx="3"/>
  <text x="160" y="508" text-anchor="middle" fill="#555" font-size="6" font-family="monospace">USB</text>
</svg>
