<?xml version="1.0" encoding="UTF-8"?>
<svg id="Layer_1" xmlns="http://www.w3.org/2000/svg" version="1.1" xmlns:xlink="http://www.w3.org/1999/xlink" viewBox="0 0 128 128">
  <!-- Generator: Adobe Illustrator 29.6.1, SVG Export Plug-In . SVG Version: 2.1.1 Build 9)  -->
  <defs>
    <style>
      .st0 {
        fill: none;
        opacity: .9;
        stroke: url(#linear-gradient2);
        stroke-linecap: round;
        stroke-width: 3px;
      }

      .st0, .st1, .st2, .st3 {
        isolation: isolate;
      }

      .st4 {
        fill: #3fb950;
      }

      .st5 {
        stroke: #484f58;
      }

      .st5, .st6 {
        fill: #6e7681;
      }

      .st7 {
        fill: #484f58;
      }

      .st8 {
        fill: #3572a5;
      }

      .st9 {
        fill: url(#linear-gradient1);
        stroke: #3fb950;
        stroke-width: 1.5px;
      }

      .st2 {
        fill: #fff;
        font-family: CourierNewPS-BoldMT, 'Courier New';
        font-size: 24.31px;
        font-weight: 700;
      }

      .st3 {
        fill: url(#linear-gradient);
        opacity: .95;
      }

      .st10 {
        fill: #d4a72c;
      }

      .st11 {
        fill: #ffd43b;
      }

      .st12 {
        fill: #a371f7;
      }

      .st13, .st14 {
        fill: #2d333b;
      }

      .st15 {
        fill: #0d1117;
      }

      .st14 {
        stroke: #444c56;
      }
    </style>
    <linearGradient id="linear-gradient" x1="-235.33" y1="451.39" x2="-235.33" y2="449.66" gradientTransform="translate(11340 14447) scale(48 -32)" gradientUnits="userSpaceOnUse">
      <stop offset="0" stop-color="#58a6ff"/>
      <stop offset="1" stop-color="#1f6feb"/>
    </linearGradient>
    <linearGradient id="linear-gradient1" x1="-236.84" y1="454.1" x2="-235.84" y2="453.1" gradientTransform="translate(13795 21867) scale(58 -48)" gradientUnits="userSpaceOnUse">
      <stop offset="0" stop-color="#2d8f4e"/>
      <stop offset="1" stop-color="#1a6b35"/>
    </linearGradient>
    <linearGradient id="linear-gradient2" x1="-223.79" y1="442.22" x2="-222.79" y2="442.22" gradientTransform="translate(3185 8017) scale(14 -18)" gradientUnits="userSpaceOnUse">
      <stop offset="0" stop-color="#58a6ff"/>
      <stop offset=".5" stop-color="#a371f7"/>
      <stop offset="1" stop-color="#2d8f4e"/>
    </linearGradient>
  </defs>
  <rect class="st15" width="128" height="128" rx="16" ry="16"/>
  <g>
    <path class="st3" d="M71.78,26.75c0-13.89-12.15-24.31-26.04-24.31-10.42,0-19.1,5.21-22.57,13.89-12.15,0-20.83,8.68-20.83,20.83s8.68,20.83,22.57,20.83h41.67c10.42,0,19.1-8.68,19.1-19.1s-8.68-19.1-19.1-19.1c3.47,0,5.21,3.47,5.21,6.94Z"/>
    <text class="st2" transform="translate(20.12 40.64)"><tspan x="0" y="0">&lt;/&gt;</tspan></text>
  </g>
  <g>
    <rect class="st9" x="58" y="70" width="58" height="48" rx="3" ry="3"/>
    <rect class="st14" x="70" y="80" width="24" height="18" rx="2" ry="2"/>
    <circle class="st7" cx="74" cy="84" r="1.5"/>
    <g class="st1">
      <path class="st6" d="M73.83,88.73v1.07h.38s.09,0,.11.03c.02.02.03.04.03.07,0,.03-.01.05-.03.07-.02.02-.06.03-.11.03h-.86s-.08,0-.11-.03c-.02-.02-.03-.04-.03-.07,0-.03.01-.06.03-.07.02-.02.06-.03.11-.03h.28v-2.45h-.28s-.08,0-.11-.03c-.02-.02-.03-.04-.03-.07s.01-.06.03-.07c.02-.02.06-.03.11-.03h1.24c.25,0,.47.08.65.24s.26.34.26.55c0,.15-.05.28-.16.41-.11.13-.29.24-.54.32.15.1.27.21.38.34.1.13.27.39.5.78h.16s.08,0,.1.03c.02.02.03.04.03.07,0,.03-.01.05-.03.07-.02.02-.06.03-.1.03h-.27c-.25-.45-.45-.76-.59-.91-.14-.15-.3-.28-.48-.36h-.65ZM73.83,88.52h.56c.18,0,.34-.03.49-.1.15-.07.25-.14.32-.23.07-.09.1-.18.1-.27,0-.14-.07-.27-.21-.39-.14-.12-.31-.19-.5-.19h-.75v1.17Z"/>
      <path class="st6" d="M77.06,88.83v.97h.7s.08,0,.11.03c.02.02.03.04.03.07,0,.03-.01.05-.03.07-.02.02-.06.03-.11.03h-1.18s-.08,0-.11-.03c-.02-.02-.03-.04-.03-.07,0-.03.01-.06.03-.07.02-.02.06-.03.11-.03h.28v-2.45h-.28s-.08,0-.11-.03c-.02-.02-.03-.04-.03-.07s.01-.06.03-.07c.02-.02.06-.03.11-.03h1.19c.28,0,.51.08.69.25.18.17.27.36.27.58,0,.13-.03.25-.09.36-.06.11-.13.19-.21.25-.12.09-.25.16-.38.2-.09.03-.21.05-.35.05h-.64ZM77.06,88.62h.65c.15,0,.29-.03.43-.1.13-.07.23-.15.29-.25.06-.1.09-.2.09-.3,0-.16-.07-.31-.21-.44-.14-.13-.31-.19-.52-.19h-.73v1.27Z"/>
      <path class="st6" d="M79.62,89.79h1.58v-.08s0-.08.03-.11.04-.03.08-.03.05,0,.07.03.03.06.03.11v.29h-1.98v-.3c.42-.37.82-.75,1.22-1.14.18-.18.31-.31.38-.4.07-.08.12-.16.14-.22.02-.06.04-.13.04-.19,0-.18-.07-.33-.21-.47-.14-.14-.31-.2-.51-.2-.18,0-.34.05-.48.15-.14.1-.23.23-.27.38,0,.04-.02.06-.04.08-.02.02-.04.02-.07.02-.03,0-.05,0-.07-.03-.02-.02-.03-.04-.03-.07,0-.08.04-.18.13-.32.09-.13.2-.24.35-.32.15-.08.3-.11.46-.11.26,0,.48.09.66.27.18.18.28.38.28.6,0,.09-.02.18-.05.26-.03.08-.08.17-.16.26s-.21.23-.4.42c-.48.48-.87.84-1.18,1.11h0Z"/>
      <path class="st6" d="M84.44,88.21v.51c0,.44-.1.79-.31,1.05-.17.2-.37.3-.62.3-.12,0-.23-.02-.34-.07-.11-.05-.2-.12-.27-.2-.05-.05-.1-.14-.16-.26-.06-.12-.1-.23-.12-.33-.04-.14-.06-.3-.06-.49v-.51c0-.44.1-.79.31-1.05.17-.2.37-.3.62-.3.12,0,.24.02.34.07.11.05.2.12.27.2.05.05.1.14.16.26.06.12.1.23.12.33.04.14.05.3.05.49ZM84.24,88.24c0-.19-.03-.37-.08-.54-.05-.17-.12-.3-.18-.4-.04-.06-.09-.11-.16-.15-.09-.06-.2-.09-.31-.09-.23,0-.41.12-.54.35-.13.23-.2.51-.2.82v.45c0,.19.03.38.08.54.05.17.12.3.19.4.04.05.09.1.16.14.09.06.2.09.31.09.23,0,.41-.12.54-.35.13-.24.2-.51.2-.82v-.45Z"/>
      <path class="st6" d="M86.89,89.14h-1.36v-.24l1.14-1.97h.43v2h.17s.09,0,.11.03c.02.02.03.04.03.08,0,.03-.01.05-.03.07-.02.02-.06.03-.11.03h-.17v.65h.17s.09,0,.11.03c.02.02.03.04.03.07,0,.03-.01.05-.03.07-.02.02-.06.03-.11.03h-.76c-.05,0-.09,0-.11-.03-.02-.02-.03-.04-.03-.07,0-.03.01-.06.03-.07.02-.02.06-.03.11-.03h.38v-.65ZM86.89,88.94v-1.79h-.11l-1.04,1.79h1.14Z"/>
      <path class="st6" d="M90.45,88.21v.51c0,.44-.1.79-.31,1.05-.17.2-.37.3-.62.3-.12,0-.23-.02-.34-.07-.11-.05-.2-.12-.27-.2-.05-.05-.1-.14-.16-.26-.06-.12-.1-.23-.12-.33-.04-.14-.06-.3-.06-.49v-.51c0-.44.1-.79.31-1.05.17-.2.37-.3.62-.3.12,0,.24.02.34.07.11.05.2.12.27.2.05.05.1.14.16.26.06.12.1.23.12.33.04.14.05.3.05.49ZM90.24,88.24c0-.19-.03-.37-.08-.54-.05-.17-.12-.3-.18-.4-.04-.06-.09-.11-.16-.15-.09-.06-.2-.09-.31-.09-.23,0-.41.12-.54.35-.13.23-.2.51-.2.82v.45c0,.19.03.38.08.54.05.17.12.3.19.4.04.05.09.1.16.14.09.06.2.09.31.09.23,0,.41-.12.54-.35.13-.24.2-.51.2-.82v-.45Z"/>
      <path class="st6" d="M75.33,94.62v1.17h1.58v-.61s0-.08.03-.11c.02-.02.04-.03.08-.03s.06.01.07.03c.02.02.03.06.03.11v.81h-2.26s-.08,0-.1-.03c-.02-.02-.03-.04-.03-.07,0-.03.01-.06.03-.07.02-.02.06-.03.1-.03h.28v-2.45h-.28s-.08,0-.1-.03c-.02-.02-.03-.04-.03-.07s.01-.06.03-.07c.02-.02.06-.03.1-.03h2.16v.71s0,.08-.03.1-.04.03-.07.03-.06-.01-.08-.03c-.02-.02-.03-.06-.03-.1v-.5h-1.47v1.07h.73v-.23s0-.08.03-.11c.02-.02.04-.03.08-.03.03,0,.05.01.07.03.02.02.03.06.03.11v.67s0,.08-.03.1c-.02.02-.04.03-.07.03-.03,0-.06-.01-.08-.03-.02-.02-.03-.06-.03-.1v-.23h-.73Z"/>
      <path class="st6" d="M79.74,93.35v-.07s0-.08.03-.1c.02-.02.04-.03.07-.03s.06.01.08.03c.02.02.03.06.03.1v.52s0,.08-.03.11c-.02.02-.04.03-.08.03-.03,0-.05,0-.07-.03-.02-.02-.03-.05-.03-.1,0-.14-.08-.26-.21-.37s-.31-.16-.52-.16c-.23,0-.41.06-.54.17-.13.12-.2.25-.2.41,0,.08.02.16.06.22.04.07.09.12.15.16.06.04.13.08.21.1s.2.05.37.08c.28.05.47.09.58.14.14.06.25.15.32.26.07.11.11.24.11.4,0,.23-.09.43-.28.6-.19.17-.44.25-.76.25-.36,0-.64-.11-.85-.33v.12s0,.08-.03.11c-.02.02-.04.03-.08.03-.03,0-.05-.01-.07-.03-.02-.02-.03-.06-.03-.11v-.57c0-.05,0-.09.03-.11s.04-.03.07-.03.05,0,.07.03.03.05.03.09c0,.15.09.29.24.41.15.12.36.18.61.18s.46-.06.61-.19c.15-.13.22-.28.22-.46,0-.11-.03-.2-.09-.29-.06-.08-.14-.15-.25-.2-.08-.03-.24-.07-.49-.12-.34-.06-.58-.14-.73-.26-.15-.12-.22-.28-.22-.5s.09-.4.26-.55c.17-.15.4-.23.68-.23s.53.09.74.27Z"/>
      <path class="st6" d="M81.56,94.83v.97h.7s.08,0,.11.03c.02.02.03.04.03.07,0,.03-.01.05-.03.07-.02.02-.06.03-.11.03h-1.18s-.08,0-.11-.03c-.02-.02-.03-.04-.03-.07,0-.03.01-.06.03-.07.02-.02.06-.03.11-.03h.28v-2.45h-.28s-.08,0-.11-.03c-.02-.02-.03-.04-.03-.07s.01-.06.03-.07c.02-.02.06-.03.11-.03h1.19c.28,0,.51.08.69.25.18.17.27.36.27.58,0,.13-.03.25-.09.36-.06.11-.13.19-.21.25-.12.09-.25.16-.38.2-.09.03-.21.05-.35.05h-.64ZM81.56,94.62h.65c.15,0,.29-.03.43-.1.13-.07.23-.15.29-.25.06-.1.09-.2.09-.3,0-.16-.07-.31-.21-.44-.14-.13-.31-.19-.52-.19h-.73v1.27Z"/>
      <path class="st6" d="M85.42,94.33c.19.08.33.2.43.35.1.15.15.3.15.46,0,.25-.1.46-.3.65-.2.19-.45.28-.75.28-.18,0-.36-.04-.55-.11-.19-.08-.32-.15-.4-.23-.02-.03-.04-.05-.04-.08,0-.03,0-.05.03-.07s.04-.03.07-.03.05.01.09.04c.25.19.52.28.8.28.24,0,.44-.07.6-.22.16-.15.24-.31.24-.5,0-.12-.04-.24-.12-.36s-.19-.21-.34-.28c-.15-.07-.3-.1-.45-.1-.05,0-.08,0-.1-.03-.02-.02-.03-.04-.03-.07s.01-.05.03-.07c.02-.02.05-.03.09-.03h.18c.18,0,.34-.05.46-.17.12-.11.18-.24.18-.39s-.06-.29-.19-.4c-.13-.12-.29-.18-.49-.18-.14,0-.27.02-.39.07-.12.05-.21.12-.29.2-.03.03-.05.05-.06.06-.01,0-.03.01-.05.01-.03,0-.05,0-.07-.03s-.03-.04-.03-.07c0-.06.07-.15.21-.25.2-.14.42-.21.67-.21s.47.08.64.23.25.34.25.56c0,.14-.04.27-.12.39-.08.12-.2.22-.35.29Z"/>
      <path class="st6" d="M87.12,95.79h1.57v-.08s0-.08.03-.11.04-.03.08-.03c.03,0,.05,0,.07.03s.03.06.03.11v.29h-1.98v-.3c.42-.37.82-.75,1.22-1.14.18-.18.31-.31.38-.4.07-.08.12-.16.14-.22s.04-.13.04-.19c0-.18-.07-.33-.21-.47-.14-.14-.31-.2-.51-.2-.18,0-.34.05-.48.15-.14.1-.23.23-.27.38,0,.04-.02.06-.04.08-.02.02-.04.02-.07.02s-.05,0-.07-.03-.03-.04-.03-.07c0-.08.04-.18.13-.32.09-.13.2-.24.35-.32s.3-.11.46-.11c.25,0,.47.09.66.27.18.18.28.38.28.6,0,.09-.02.18-.05.26-.03.08-.08.17-.16.26-.07.09-.21.23-.4.42-.48.48-.87.84-1.18,1.11h0Z"/>
    </g>
    <rect class="st5" x="106" y="84" width="12" height="12" rx="2" ry="2"/>
    <rect class="st13" x="109" y="87" width="6" height="6" rx="1" ry="1"/>
    <g>
      <circle class="st10" cx="62" cy="76" r="2"/>
      <circle class="st10" cx="62" cy="82" r="2"/>
      <circle class="st10" cx="62" cy="88" r="2"/>
      <circle class="st10" cx="62" cy="94" r="2"/>
      <circle class="st10" cx="62" cy="100" r="2"/>
      <circle class="st10" cx="62" cy="106" r="2"/>
      <circle class="st10" cx="62" cy="112" r="2"/>
    </g>
    <g>
      <circle class="st10" cx="102" cy="76" r="2"/>
      <circle class="st10" cx="102" cy="82" r="2"/>
      <circle class="st10" cx="102" cy="88" r="2"/>
      <circle class="st10" cx="102" cy="94" r="2"/>
      <circle class="st10" cx="102" cy="100" r="2"/>
      <circle class="st10" cx="102" cy="106" r="2"/>
      <circle class="st10" cx="102" cy="112" r="2"/>
    </g>
    <circle class="st4" cx="96" cy="110" r="3">
      <animate accumulate="none" additive="replace" attributeName="opacity" calcMode="linear" dur="2s" fill="remove" repeatCount="indefinite" restart="always" values="1;0.5;1"/>
    </circle>
    <rect class="st6" x="70" y="104" width="6" height="6" rx="1" ry="1"/>
  </g>
  <path class="st0" d="M51.9,45.96c8.06,9.79,10.07,12.24,14.1,22.04">
    <animate accumulate="none" additive="replace" attributeName="stroke-dasharray" calcMode="linear" dur="2s" fill="remove" repeatCount="indefinite" restart="always" values="0,100;50,50;100,0"/>
  </path>
  <g>
    <circle class="st12" cx="53.45" cy="48.19" r="3.19">
      <animate accumulate="none" additive="replace" attributeName="cx" calcMode="linear" dur="1.5s" fill="remove" repeatCount="indefinite" restart="always" values="52;66"/>
      <animate accumulate="none" additive="replace" attributeName="cy" calcMode="linear" dur="1.5s" fill="remove" repeatCount="indefinite" restart="always" values="50;68"/>
      <animate accumulate="none" additive="replace" attributeName="opacity" calcMode="linear" dur="1.5s" fill="remove" repeatCount="indefinite" restart="always" values="1;0.3;1"/>
    </circle>
    <circle class="st12" cx="60.5" cy="56.5" r="2.5">
      <animate accumulate="none" additive="replace" attributeName="cx" calcMode="linear" dur="1.5s" fill="remove" repeatCount="indefinite" restart="always" values="52;66"/>
      <animate accumulate="none" additive="replace" attributeName="cy" calcMode="linear" dur="1.5s" fill="remove" repeatCount="indefinite" restart="always" values="50;68"/>
      <animate accumulate="none" additive="replace" attributeName="opacity" calcMode="linear" dur="1.5s" fill="remove" repeatCount="indefinite" restart="always" values="1;0.3;1"/>
    </circle>
    <circle class="st12" cx="64.75" cy="64.58" r="2">
      <animate accumulate="none" additive="replace" attributeName="cx" begin="0.5s" calcMode="linear" dur="1.5s" fill="remove" repeatCount="indefinite" restart="always" values="52;66"/>
      <animate accumulate="none" additive="replace" attributeName="cy" begin="0.5s" calcMode="linear" dur="1.5s" fill="remove" repeatCount="indefinite" restart="always" values="50;68"/>
      <animate accumulate="none" additive="replace" attributeName="opacity" begin="0.5s" calcMode="linear" dur="1.5s" fill="remove" repeatCount="indefinite" restart="always" values="0.5;1;0.5"/>
    </circle>
  </g>
  <g>
    <path class="st8" d="M22.88,83.97c-9.81,0-9.24,4.23-9.24,4.23v4.51h9.45v1.27h-12.52s-5.19-.63-5.19,9.31,4.51,9.31,4.51,9.31h3.03v-4.87s-.28-4.66,4.44-4.66h9.59s4.44.07,4.44-4.3v-9.95s.71-4.87-8.54-4.87ZM18.01,86.79c.99,0,1.76.78,1.76,1.76s-.78,1.76-1.76,1.76-1.76-.78-1.76-1.76.78-1.76,1.76-1.76Z"/>
    <path class="st11" d="M23.16,122.77c9.81,0,9.24-4.23,9.24-4.23v-4.51h-9.45v-1.27h12.52s5.19.63,5.19-9.31-4.51-9.31-4.51-9.31h-3.03v4.87s.28,4.66-4.44,4.66h-9.59s-4.44-.07-4.44,4.3v9.95s-.71,4.87,8.54,4.87ZM28.03,119.95c-.99,0-1.76-.78-1.76-1.76s.78-1.76,1.76-1.76,1.76.78,1.76,1.76-.78,1.76-1.76,1.76Z"/>
  </g>
</svg>