<?xml version="1.0" encoding="UTF-8"?>
<svg id="Layer_1" xmlns="http://www.w3.org/2000/svg" version="1.1" viewBox="0 0 24 24">
  <!-- Generator: Adobe Illustrator 29.6.1, SVG Export Plug-In . SVG Version: 2.1.1 Build 9)  -->
  <defs>
    <style>
      .st0 {
        isolation: isolate;
        opacity: .5;
      }

      .st0, .st1 {
        fill: none;
        stroke: #000;
        stroke-width: .5px;
      }
    </style>
  </defs>
  <path d="M2.71,3.86c0-1.6,1.26-2.86,2.86-2.86,1.14,0,2.06.57,2.51,1.49.34-.23.8-.34,1.26-.34,1.37,0,2.51,1.14,2.51,2.51,0,.11,0,.34-.11.46.8.34,1.26,1.14,1.26,1.94,0,1.26-1.03,2.29-2.29,2.29H3.29c-1.26,0-2.29-1.03-2.29-2.29,0-.91.57-1.71,1.37-2.06-.11-.34-.23-.8-.23-1.14h.57Z"/>
  <rect x="7" y="15.62" width="14.77" height="7.38" rx="1" ry="1"/>
  <rect x="19.31" y="17.46" width="3.69" height="3.69" rx=".5" ry=".5"/>
  <rect class="st0" x="10.69" y="17.46" width="6.15" height="3.69" rx=".5" ry=".5"/>
  <circle class="st1" cx="8.85" cy="17.46" r=".86"/>
  <circle class="st1" cx="8.85" cy="21.15" r=".86"/>
  <circle class="st1" cx="17.46" cy="17.46" r=".86"/>
  <circle class="st1" cx="17.46" cy="21.15" r=".86"/>
  <polygon points="15.33 12.66 13.4 9.27 12.26 9.92 14.19 13.31 13.01 13.98 15.76 14.73 16.51 11.98 15.33 12.66"/>
</svg>