<svg xmlns="http://www.w3.org/2000/svg" width="24" height="24" viewBox="0 0 24 24">
  <!-- Simple monochrome Pico + Cloud bridge icon -->
  
  <!-- Cloud (top) -->
  <path fill="currentColor" d="M6.5 9C6.5 7.6 7.6 6.5 9 6.5c1 0 1.8.5 2.2 1.3.3-.2.7-.3 1.1-.3 1.2 0 2.2 1 2.2 2.2 0 .1 0 .3-.1.4.7.3 1.1 1 1.1 1.7 0 1.1-.9 2-2 2H7c-1.1 0-2-.9-2-2 0-.8.5-1.5 1.2-1.8-.1-.3-.2-.7-.2-1z"/>
  
  <!-- Bridge connection (middle) -->
  <path fill="currentColor" d="M11 13v2h2v-2z"/>
  
  <!-- Pico board (bottom) -->
  <rect x="6" y="16" width="12" height="6" rx="1" fill="currentColor"/>
  
  <!-- USB port -->
  <rect x="16" y="17.5" width="3" height="3" rx="0.5" fill="currentColor"/>
  
  <!-- Chip on board -->
  <rect x="9" y="17.5" width="5" height="3" rx="0.5" fill="none" stroke="currentColor" stroke-width="0.5" opacity="0.5"/>
  
  <!-- GPIO pins left -->
  <circle cx="7.5" cy="17.5" r="0.7" fill="none" stroke="currentColor" stroke-width="0.5"/>
  <circle cx="7.5" cy="20.5" r="0.7" fill="none" stroke="currentColor" stroke-width="0.5"/>
  
  <!-- GPIO pins right -->
  <circle cx="14.5" cy="17.5" r="0.7" fill="none" stroke="currentColor" stroke-width="0.5"/>
  <circle cx="14.5" cy="20.5" r="0.7" fill="none" stroke="currentColor" stroke-width="0.5"/>
</svg>
